<svg xmlns="http://www.w3.org/2000/svg" viewBox="0 0 100 100">
  <defs>
    <linearGradient id="grad1" x1="0%" y1="0%" x2="100%" y2="100%">
      <stop offset="0%" style="stop-color:#ff3d3d;stop-opacity:1" />
      <stop offset="100%" style="stop-color:#fb923c;stop-opacity:1" />
    </linearGradient>
  </defs>
  <rect width="100" height="100" rx="20" fill="#0d0d0d"/>
  <path d="M70 45L80 35 70 25 55 40 30 15 20 25 15 20 25 30 20 35 30 45 55 20 40 35 55 50 70 35 60 45 70 55 80 65 70 75 60 65 55 70 65 80 55 70 45 80 35 70 25 80 15 70 25 60 35 70 45 60 55 70 65 60 75 70 65 80" 
        fill="url(#grad1)" 
        transform="translate(10, 10) scale(0.8)"/>
</svg>
